<?xml version="1.0" standalone="no"?>
<!DOCTYPE svg PUBLIC "-//W3C//DTD SVG 20010904//EN"
 "http://www.w3.org/TR/2001/REC-SVG-20010904/DTD/svg10.dtd">
<svg version="1.0" xmlns="http://www.w3.org/2000/svg"
 width="1024.000000pt" height="1024.000000pt" viewBox="0 0 1024.000000 1024.000000"
 preserveAspectRatio="xMidYMid meet">

<g transform="translate(0.000000,1024.000000) scale(0.100000,-0.100000)"
fill="#000000" stroke="none">
<path d="M5003 6250 c-195 -35 -297 -75 -460 -183 -242 -160 -404 -396 -473
-692 -39 -167 -31 -428 17 -560 36 -99 38 -126 15 -171 -11 -21 -41 -97 -66
-169 -26 -71 -51 -139 -56 -150 -4 -11 -29 -65 -54 -119 -26 -55 -44 -101 -42
-104 3 -2 11 11 19 29 22 54 41 65 74 44 47 -30 83 -68 83 -87 0 -33 17 -10
45 59 46 117 106 230 135 258 35 33 42 30 130 -61 140 -144 241 -210 407 -268
295 -102 550 -85 838 54 126 61 225 137 293 225 82 106 79 105 137 24 28 -39
62 -87 77 -107 15 -20 45 -74 68 -119 22 -46 44 -83 48 -83 4 1 24 25 45 55
21 30 45 55 53 55 11 0 14 6 8 23 -12 39 -140 359 -172 430 -31 67 -31 69 -16
110 53 139 64 182 75 291 29 297 -53 577 -235 805 -73 91 -251 241 -345 290
-172 89 -355 142 -485 140 -33 -1 -107 -9 -163 -19z m316 -261 c141 -28 302
-122 422 -246 137 -140 204 -272 228 -448 15 -104 14 -166 -5 -292 -43 -298
-177 -488 -444 -636 -168 -93 -374 -117 -595 -71 -90 19 -151 47 -262 122
-121 81 -197 174 -273 334 -64 135 -83 220 -83 383 0 77 6 167 13 200 30 146
158 350 293 471 186 165 449 233 706 183z"/>
<path d="M5455 5466 c-17 -7 -66 -53 -109 -102 -86 -98 -222 -224 -240 -224
-7 0 -52 36 -101 80 -112 100 -160 125 -222 116 -82 -11 -148 -69 -160 -141
-8 -50 36 -135 90 -175 23 -17 91 -74 150 -128 150 -134 178 -152 240 -152
l50 0 191 188 c105 104 218 210 251 236 111 89 141 164 92 237 -44 67 -156 98
-232 65z"/>
<path d="M3866 4073 c-6 -14 -5 -15 5 -6 7 7 10 15 7 18 -3 3 -9 -2 -12 -12z"/>
<path d="M6186 3904 c-4 -9 -4 -19 -1 -22 2 -3 7 3 11 12 4 9 4 19 1 22 -2 3
-7 -3 -11 -12z"/>
<path d="M6166 3845 c-9 -26 -7 -32 5 -12 6 10 9 21 6 23 -2 3 -7 -2 -11 -11z"/>
<path d="M5982 3550 c-41 -39 -70 -70 -65 -70 5 0 40 32 78 70 38 39 67 70 65
70 -3 -1 -38 -32 -78 -70z"/>
<path d="M5859 3443 c-13 -16 -12 -17 4 -4 16 13 21 21 13 21 -2 0 -10 -8 -17
-17z"/>
<path d="M3587 3341 c-4 -17 -3 -21 5 -13 5 5 8 16 6 23 -3 8 -7 3 -11 -10z"/>
<path d="M5715 3350 c-3 -6 1 -7 9 -4 18 7 21 14 7 14 -6 0 -13 -4 -16 -10z"/>
<path d="M3547 3241 c-4 -17 -3 -21 5 -13 5 5 8 16 6 23 -3 8 -7 3 -11 -10z"/>
<path d="M5248 3203 c6 -2 18 -2 25 0 6 3 1 5 -13 5 -14 0 -19 -2 -12 -5z"/>
<path d="M3321 2767 c-13 -21 -12 -21 5 -5 10 10 16 20 13 22 -3 3 -11 -5 -18
-17z"/>
<path d="M7852 2740 c0 -19 2 -27 5 -17 2 9 2 25 0 35 -3 9 -5 1 -5 -18z"/>
<path d="M3280 2710 c-6 -11 -8 -20 -6 -20 3 0 10 9 16 20 6 11 8 20 6 20 -3
0 -10 -9 -16 -20z"/>
<path d="M3086 2515 c-11 -8 -15 -15 -9 -15 6 0 16 7 23 15 16 19 11 19 -14 0z"/>
<path d="M7483 2423 c15 -2 39 -2 55 0 15 2 2 4 -28 4 -30 0 -43 -2 -27 -4z"/>
<path d="M2758 2408 c9 -9 15 -9 24 0 9 9 7 12 -12 12 -19 0 -21 -3 -12 -12z"/>
</g>
</svg>
